# xmcd
#
# Track frame offsets:
#	150
#	13633
#	30477
#	49257
#	60064
#	87031
#	101314
#	113482
#	138362
#	156072
#
# Disc length: 2332 seconds
#
# Revision: 0
# Processed by: cddbd v1.5.2PL0 Copyright (c) Steve Scherf et al.
# Submitted via: EasyCDDAExtractor 11.1.0.1
#
DISCID=65091a0a
DTITLE=John Lennon - Imagine
DYEAR=1971
DGENRE=Classic Rock
TTITLE0=Imagine
TTITLE1=Crippled Inside
TTITLE2=Jealous Guy
TTITLE3=Its So Hard
TTITLE4=I Dont Want To Be A Soldier Mama
TTITLE5=Give Me Some Truth
TTITLE6=Oh My Love
TTITLE7=How Do You Sleep
TTITLE8=How?
TTITLE9=Oh Yoko
EXTD=
EXTT0=
EXTT1=
EXTT2=
EXTT3=
EXTT4=
EXTT5=
EXTT6=
EXTT7=
EXTT8=
EXTT9=
PLAYORDER=
